<?xml version="1.0"?>
<svg width="640" height="480" xmlns="http://www.w3.org/2000/svg" xmlns:svg="http://www.w3.org/2000/svg">
 <!-- Created with SVG-edit - https://github.com/SVG-Edit/svgedit-->

 <g class="layer" display="inline">
  <title>Layer 1</title>
  <rect fill="#ffffff" height="92" id="svg_1" stroke="#000000" stroke-width="5" width="105" x="297.64" y="6.73"/>
  <text fill="#000000" font-family="Serif" font-size="11" id="svg_3" stroke="#000000" stroke-width="0" text-anchor="middle" x="350" xml:space="preserve" y="19">Program Statement</text>
  <text fill="#000000" font-family="Serif" font-size="11" id="svg_4" stroke="#000000" stroke-width="0" text-anchor="middle" x="349" xml:space="preserve" y="32.19">user/bin/program.cc</text>
  <text fill="#000000" font-family="Serif" font-size="7" id="svg_5" stroke="#000000" stroke-width="0" text-anchor="middle" x="350" xml:space="preserve" y="41.19">Identifier Variable Expression</text>
  <text fill="#000000" font-family="Serif" font-size="17" id="svg_6" stroke="#000000" stroke-width="0" text-anchor="middle" x="347" xml:space="preserve" y="57.19">Call Hook</text>
  <text fill="#000000" font-family="Serif" font-size="10" id="svg_7" stroke="#000000" stroke-width="0" text-anchor="middle" x="351" xml:space="preserve" y="75.19">$ i, o, foo, bar () {[]}</text>
  <line fill="none" id="svg_9" stroke="#000000" stroke-width="5" x1="294.64" x2="244.64" y1="74.28" y2="116.28"/>
  <line fill="none" id="svg_10" stroke="#000000" stroke-width="5" x1="406.64" x2="460.64" y1="73.28" y2="112.28"/>
  <rect fill="#ffffff" height="78" id="svg_11" stroke="#000000" stroke-width="5" transform="matrix(1 0 0 1 0 0)" width="112" x="134.64" y="116.28"/>
  <rect fill="#ffffff" height="77" id="svg_12" stroke="#000000" stroke-width="5" width="124" x="447" y="115"/>
  <text fill="#000000" font-family="Serif" font-size="14" id="svg_13" stroke="#000000" stroke-width="0" text-anchor="middle" x="189" xml:space="preserve" y="131">user/bin/libs</text>
  <text fill="#000000" font-family="Serif" font-size="14" id="svg_14" stroke="#000000" stroke-width="0" text-anchor="middle" x="509" xml:space="preserve" y="130">usr/bin/cli.js</text>
  <text fill="#000000" font-family="Serif" font-size="14" id="svg_16" stroke="#000000" stroke-width="0" text-anchor="middle" x="187" xml:space="preserve" y="141.28">literal engine</text>
  <text fill="#000000" font-family="Serif" font-size="13" id="svg_18" stroke="#000000" stroke-width="0" text-anchor="middle" x="508" xml:space="preserve" y="137.28">console/terminal/shell</text>
  <text fill="#000000" font-family="Serif" font-size="15" id="svg_19" stroke="#000000" stroke-width="0" text-anchor="middle" x="188" xml:space="preserve" y="159">debugger blocks</text>
  <text fill="#000000" font-family="Serif" font-size="10" id="svg_21" stroke="#000000" stroke-width="0" text-anchor="middle" x="510" xml:space="preserve" y="153.28">api.js, init.js, rules/hashcat</text>
  <text fill="#000000" font-family="Serif" font-size="16" id="svg_22" stroke="#000000" stroke-width="0" text-anchor="middle" x="185" xml:space="preserve" y="175">pentest</text>
  <line fill="none" id="svg_25" stroke="#000000" stroke-width="5" x1="507.64" x2="507.64" y1="189.28" y2="267.28"/>
  <line fill="none" id="svg_26" stroke="#000000" stroke-width="5" x1="191.64" x2="191.64" y1="194.28" y2="266.28"/>
  <path d="m177.48,272.46l14.51,-14.47l14.51,14.47l-7.26,0l0,14.53l-14.51,0l0,-14.53z" fill="#000000" id="svg_27" stroke="#000000" stroke-width="5" transform="matrix(1 0 0 1 0 0) rotate(179.462 191.99 272.49)"/>
  <path d="m493.5,269.95l13,-12.96l13,12.96l-6.5,0l0,13.02l-13,0l0,-13.02z" fill="#000000" id="svg_28" stroke="#000000" stroke-width="5" transform="matrix(1 0 0 1 0 0) rotate(-179.543 506.496 269.983)"/>
  <text fill="#007f00" font-family="Monospace" font-size="13" id="svg_29" letter-spacing="1" stroke="#000000" stroke-width="0" text-anchor="middle" textLength="0" word-spacing="0" x="457.64" xml:space="preserve" y="173.28">\rules\index.js, &gt; eslint/default/fs</text>
  <path d="m300,322.67c0,13.35 -48.69,24.17 -108.75,24.17m108.75,-24.17l0,0c0,13.35 -48.69,24.17 -108.75,24.17c-60.06,0 -108.75,-10.82 -108.75,-24.17m0,0l0,0c0,-13.35 48.69,-24.17 108.75,-24.17c60.06,0 108.75,10.82 108.75,24.17l0,96.67c0,13.35 -48.69,24.17 -108.75,24.17c-60.06,0 -108.75,-10.82 -108.75,-24.17z" fill="#007f00" id="svg_30" stroke="#000000" stroke-width="5"/>
  <text fill="#000000" font-family="Fantasy" font-size="13" id="svg_33" stroke="#000000" stroke-width="0" text-anchor="middle" x="191" xml:space="preserve" y="319">SRC.CC</text>
  <path d="m190.46,330.82c47,-1 -6,32 -6.46,31.18c-0.46,-0.82 6.46,-31.18 6.46,-31.18z" fill="#000000" id="svg_35" stroke="#000000" stroke-width="5"/>
  <text fill="#000000" font-family="Fantasy" font-size="13" id="svg_36" stroke="#000000" stroke-width="0" text-anchor="middle" x="133.46" xml:space="preserve" y="383.82"/>
  <text fill="#ff0000" font-family="Fantasy" font-size="13" id="svg_39" stroke="#000000" stroke-width="0" text-anchor="middle" x="155.46" xml:space="preserve" y="394.82">ERROR HANDLER</text>
  <text fill="#000000" font-family="Fantasy" font-size="15" id="svg_42" stroke="#000000" stroke-width="0" text-anchor="middle" x="141" xml:space="preserve" y="20">function, for, if, while, do, switch, try, catch</text>
  <text fill="#000000" font-family="Monospace" font-size="12" id="svg_44" stroke="#000000" stroke-width="0" text-anchor="middle" x="525" xml:space="preserve" y="16">(){[]}, &quot;&quot;, &#x27;&#x27;, ./, \\, *, &lt;/&gt;</text>
  <rect fill="#bf0000" height="149" id="svg_45" stroke="#000000" stroke-width="5" width="165" x="421" y="297"/>
  <text fill="#000000" font-family="Monospace" font-size="18" id="svg_47" stroke="#000000" stroke-width="0" text-anchor="middle" x="504" xml:space="preserve" y="322.82">data/assets</text>
  <text fill="#000000" font-family="Sans-serif" font-size="12" id="svg_48" stroke="#000000" stroke-width="0" text-anchor="middle" x="508" xml:space="preserve" y="342.82">compiler, interpreter, parser</text>
  <text fill="#000000" font-family="Sans-serif" font-size="9" id="svg_49" stroke="#000000" stroke-width="0" text-anchor="middle" x="506" xml:space="preserve" y="362.55">MSFT, NVIDIA, AMD, AKAM, ABC</text>
  <text fill="#000000" font-family="Sans-serif" font-size="13" id="svg_51" stroke="#000000" stroke-width="0" text-anchor="middle" x="505" xml:space="preserve" y="385">Heroku, Silicon, Selenium</text>
  <path d="m347.01,401.55c5.5,-5.3 9.51,-12.02 12.88,-18.82c2.06,-2.71 0.11,-5.09 -2.69,-2.79c-7.2,4.81 -17,6.46 -24.8,2.07c-8.81,-4.56 -12.79,-15.39 -10.79,-24.84c1.27,-9.57 8.23,-17.07 15.79,-22.46c8.69,-6.21 18.07,-11.55 26.01,-18.74c3.31,0.07 5.81,5.27 9.38,6.64c9.47,7.06 20.7,12.25 28.16,21.68c3.77,5.38 5.92,12 6.16,18.54c-1.15,8.87 -6.44,18.23 -15.56,20.76c-7.89,2.39 -16,-0.64 -22.88,-4.49c-0.84,-0.18 -3.92,-2.61 -2.7,-0.72c4.11,8.43 8.61,16.81 15.13,23.66c0.38,0.87 3.39,2.92 1.79,2.89c-13.39,0 -26.78,0 -40.17,0c1.43,-1.13 2.86,-2.25 4.29,-3.38z" fill="#003f7f" id="svg_52" stroke="#000000" stroke-width="5"/>
  <path d="m36.16,232.87c-6.75,1.24 -6.88,-8.57 -0.82,-8.88c-1.82,-4.21 -0.43,-9.37 2.26,-13.27c3.85,-6.51 9.64,-12.97 8.44,-21.12c-0.41,-4.24 -5.67,-11.84 2.48,-10.75c2.2,-4.23 0.92,-10.45 2.57,-15.3c1.44,-9.2 4.65,-19.02 1.24,-28.14c-2.15,-4.86 -7.62,-8.05 -7.03,-13.99c-0.62,-5.79 -0.41,-11.62 0.26,-17.4c2.63,0.22 5.55,-0.55 7.95,0.64c-0.02,5.6 5.3,4.36 4.67,-0.4c1.4,-0.55 3.72,-0.08 5.47,-0.24c7.8,0 15.59,0 23.39,0c-0.89,3.25 1.52,7.44 4.58,3.61c-0.84,-5.08 6.16,-3.4 4.49,0.97c0.1,5.79 0.81,11.78 -0.82,17.42c-2.65,2.25 -2.69,6.68 -6.01,9.34c-2.67,4.98 -1.49,11 -1.2,16.4c1.13,8 2.99,15.91 3.46,24.01c-0.33,4.4 8.73,3.11 4.82,8.52c-4.27,3.64 -1.77,9.78 -0.08,14.12c3.34,7.51 10.37,14.25 9.31,23.05c-0.84,3.85 6.12,2.55 4.31,7.5c-0.05,6.1 -9.12,2.18 -13.14,3.46c-20.2,0.24 -40.4,0.62 -60.6,0.43z" fill="#000000" id="svg_53" stroke="#ff0000" stroke-width="5"/>
  <path d="m478.59,420.38l11.88,-11.88l12.62,12.62l12.62,-12.62l11.88,11.88l-12.62,12.62l12.62,12.62l-11.88,11.88l-12.62,-12.62l-12.62,12.62l-11.88,-11.88l12.62,-12.62l-12.62,-12.62z" fill="#bf0000" id="svg_54" stroke="#000000" stroke-width="5"/>
  <path d="m225.77,413.96l22.82,0l4.9,-13.45l14.44,5.25l-2.98,8.2l8.84,0l0,15.36l-14.43,0l-2.8,7.68l17.22,0l0,15.36l-22.82,0l-4.9,13.45l-14.44,-5.25l2.98,-8.2l-8.84,0l0,-15.36l14.43,0l2.8,-7.68l-17.22,0z" fill="#ffffff" id="svg_55" stroke="#005fbf" stroke-width="5"/>
 </g>
</svg>